<svg width="28" height="24" viewBox="0 0 28 24" fill="none" xmlns="http://www.w3.org/2000/svg">
<path fill-rule="evenodd" clip-rule="evenodd" d="M16.9498 6.34988C16.9498 9.8749 14.0653 12.6998 10.4658 12.6998C6.86759 12.6998 3.98173 9.8749 3.98173 6.34988C3.98173 2.82487 6.86759 0 10.4658 0C14.0653 0 16.9498 2.82487 16.9498 6.34988ZM0.666656 19.8898C0.666656 16.6267 5.18069 15.8103 10.4658 15.8103C15.7795 15.8103 20.2649 16.6548 20.2649 19.9205C20.2649 23.1836 15.7508 24 10.4658 24C5.15199 24 0.666656 23.1555 0.666656 19.8898ZM19.5646 6.465C19.5646 8.26009 19.014 9.93507 18.0486 11.3264C17.9481 11.4695 18.0368 11.6624 18.2116 11.6931C18.4543 11.7327 18.7035 11.757 18.9579 11.7621C21.4889 11.8273 23.7603 10.2315 24.3878 7.82824C25.318 4.26234 22.5887 1.06057 19.1118 1.06057C18.7348 1.06057 18.3734 1.0989 18.0212 1.16917C17.9729 1.17939 17.9207 1.20239 17.8946 1.24327C17.8607 1.29566 17.8855 1.36337 17.9194 1.40809C18.9644 2.84288 19.5646 4.58942 19.5646 6.465ZM23.7563 14.2697C25.4576 14.5955 26.5757 15.2586 27.0388 16.2258C27.4315 17.0179 27.4315 17.9378 27.0388 18.73C26.3304 20.2274 24.0447 20.709 23.1562 20.833C22.9723 20.8585 22.8248 20.7052 22.8444 20.5238C23.2984 16.374 19.6885 14.4064 18.7544 13.9542C18.7152 13.9324 18.7061 13.9018 18.71 13.8813C18.7126 13.8686 18.7296 13.8481 18.7596 13.8443C20.7805 13.8059 22.954 14.0781 23.7563 14.2697Z" fill="#585858"/>
</svg>
