<svg width="36" height="36" viewBox="0 0 36 36" fill="none" xmlns="http://www.w3.org/2000/svg">
<path fill-rule="evenodd" clip-rule="evenodd" d="M10.9953 3.00015H24.9903C30.0903 3.00015 33.0003 5.88015 33.0003 10.9951V25.0052C33.0003 30.0901 30.1053 33.0001 25.0053 33.0001H10.9953C5.88031 33.0001 3.00031 30.0901 3.00031 25.0052V10.9951C3.00031 5.88015 5.88031 3.00015 10.9953 3.00015ZM19.2303 19.2452H23.4903C24.1803 19.2302 24.7353 18.6751 24.7353 17.9852C24.7353 17.2951 24.1803 16.7402 23.4903 16.7402H19.2303V12.5101C19.2303 11.8202 18.6753 11.2652 17.9853 11.2652C17.2953 11.2652 16.7403 11.8202 16.7403 12.5101V16.7402H12.4953C12.1653 16.7402 11.8503 16.8752 11.6103 17.1002C11.3853 17.3401 11.2503 17.6537 11.2503 17.9852C11.2503 18.6751 11.8053 19.2302 12.4953 19.2452H16.7403V23.4901C16.7403 24.1802 17.2953 24.7352 17.9853 24.7352C18.6753 24.7352 19.2303 24.1802 19.2303 23.4901V19.2452Z" fill="#A9A9A9"/>
<path d="M23.4903 19.2452V20.4952H23.5039L23.5175 20.4949L23.4903 19.2452ZM19.2303 19.2452V17.9952H17.9803V19.2452H19.2303ZM19.2303 16.7402H17.9803V17.9902H19.2303V16.7402ZM16.7403 16.7402V17.9902H17.9903V16.7402H16.7403ZM11.6103 17.1002L10.7554 16.1882L10.726 16.2158L10.6984 16.2452L11.6103 17.1002ZM12.4953 19.2452L12.4681 20.4949L12.4817 20.4952H12.4953V19.2452ZM16.7403 19.2452H17.9903V17.9952H16.7403V19.2452ZM24.9903 1.75015H10.9953V4.25015H24.9903V1.75015ZM34.2503 10.9951C34.2503 8.20378 33.4521 5.84919 31.7899 4.19382C30.1285 2.53926 27.7715 1.75015 24.9903 1.75015V4.25015C27.3091 4.25015 28.9572 4.90104 30.0258 5.96523C31.0935 7.02861 31.7503 8.67152 31.7503 10.9951H34.2503ZM34.2503 25.0052V10.9951H31.7503V25.0052H34.2503ZM25.0053 34.2501C27.79 34.2501 30.1434 33.4515 31.7998 31.7928C33.4559 30.1344 34.2503 27.7815 34.2503 25.0052H31.7503C31.7503 27.3138 31.0972 28.9584 30.0308 30.0262C28.9647 31.0938 27.3206 31.7501 25.0053 31.7501V34.2501ZM10.9953 34.2501H25.0053V31.7501H10.9953V34.2501ZM1.75031 25.0052C1.75031 27.7798 2.53996 30.133 4.19458 31.7922C5.84978 33.452 8.20396 34.2501 10.9953 34.2501V31.7501C8.67165 31.7501 7.02833 31.0933 5.96478 30.0269C4.90065 28.9598 4.25031 27.3155 4.25031 25.0052H1.75031ZM1.75031 10.9951V25.0052H4.25031V10.9951H1.75031ZM10.9953 1.75015C8.20741 1.75015 5.85254 2.5389 4.1958 4.19564C2.53906 5.85238 1.75031 8.20725 1.75031 10.9951H4.25031C4.25031 8.66805 4.90156 7.02542 5.96356 5.96341C7.02557 4.9014 8.6682 4.25015 10.9953 4.25015V1.75015ZM23.4903 17.9952H19.2303V20.4952H23.4903V17.9952ZM23.4853 17.9852C23.4853 17.9874 23.4851 17.9881 23.4852 17.9876C23.4853 17.9873 23.4854 17.9867 23.4856 17.9863C23.486 17.9853 23.4858 17.9862 23.484 17.9881C23.4821 17.99 23.4796 17.9917 23.4768 17.993C23.4746 17.9939 23.4707 17.9953 23.4631 17.9954L23.5175 20.4949C24.8714 20.4654 25.9853 19.3705 25.9853 17.9852H23.4853ZM23.4903 17.9902C23.4926 17.9902 23.4932 17.9904 23.4927 17.9902C23.4922 17.9902 23.4914 17.9899 23.4905 17.9896C23.4888 17.9888 23.488 17.9881 23.4877 17.9878C23.4874 17.9875 23.4866 17.9866 23.4859 17.9849C23.4855 17.984 23.4853 17.9832 23.4852 17.9828C23.4851 17.9822 23.4853 17.9829 23.4853 17.9852H25.9853C25.9853 16.6048 24.8707 15.4902 23.4903 15.4902V17.9902ZM19.2303 17.9902H23.4903V15.4902H19.2303V17.9902ZM17.9803 12.5101V16.7402H20.4803V12.5101H17.9803ZM17.9853 12.5152C17.9876 12.5152 17.9882 12.5154 17.9877 12.5152C17.9872 12.5152 17.9864 12.5149 17.9855 12.5146C17.9838 12.5138 17.983 12.5131 17.9827 12.5128C17.9824 12.5125 17.9816 12.5116 17.9809 12.5099C17.9805 12.509 17.9803 12.5082 17.9802 12.5078C17.9801 12.5072 17.9803 12.5079 17.9803 12.5101H20.4803C20.4803 11.1298 19.3657 10.0152 17.9853 10.0152V12.5152ZM17.9903 12.5101C17.9903 12.5079 17.9905 12.5072 17.9904 12.5078C17.9903 12.5082 17.9901 12.509 17.9897 12.5099C17.989 12.5116 17.9883 12.5125 17.9879 12.5128C17.9876 12.5131 17.9868 12.5138 17.9851 12.5146C17.9842 12.5149 17.9834 12.5152 17.9829 12.5152C17.9824 12.5154 17.983 12.5152 17.9853 12.5152V10.0152C16.6049 10.0152 15.4903 11.1298 15.4903 12.5101H17.9903ZM17.9903 16.7402V12.5101H15.4903V16.7402H17.9903ZM12.4953 17.9902H16.7403V15.4902H12.4953V17.9902ZM12.4652 18.0121C12.4777 18.0004 12.489 17.9941 12.4957 17.9913C12.5019 17.9888 12.5016 17.9902 12.4953 17.9902V15.4902C11.8219 15.4902 11.2075 15.7643 10.7554 16.1882L12.4652 18.0121ZM12.5003 17.9852C12.5003 17.9902 12.4991 17.9907 12.5013 17.9855C12.5037 17.9797 12.5097 17.9684 12.5222 17.9551L10.6984 16.2452C10.275 16.6968 10.0003 17.3095 10.0003 17.9852H12.5003ZM12.5225 17.9954C12.5149 17.9953 12.511 17.9939 12.5088 17.993C12.506 17.9917 12.5035 17.99 12.5016 17.9881C12.4998 17.9862 12.4996 17.9853 12.5 17.9863C12.5002 17.9867 12.5003 17.9873 12.5004 17.9876C12.5005 17.9881 12.5003 17.9874 12.5003 17.9852H10.0003C10.0003 19.3705 11.1142 20.4654 12.4681 20.4949L12.5225 17.9954ZM16.7403 17.9952H12.4953V20.4952H16.7403V17.9952ZM17.9903 23.4901V19.2452H15.4903V23.4901H17.9903ZM17.9853 23.4852C17.983 23.4852 17.9824 23.4849 17.9829 23.4851C17.9834 23.4851 17.9842 23.4854 17.9851 23.4857C17.9868 23.4865 17.9876 23.4872 17.9879 23.4875C17.9883 23.4878 17.989 23.4887 17.9897 23.4904C17.9901 23.4913 17.9903 23.4921 17.9904 23.4925C17.9905 23.4931 17.9903 23.4924 17.9903 23.4901H15.4903C15.4903 24.8705 16.6049 25.9852 17.9853 25.9852V23.4852ZM17.9803 23.4901C17.9803 23.4924 17.9801 23.4931 17.9802 23.4925C17.9803 23.4921 17.9805 23.4913 17.9809 23.4904C17.9816 23.4887 17.9824 23.4878 17.9827 23.4875C17.983 23.4872 17.9838 23.4865 17.9855 23.4857C17.9864 23.4854 17.9872 23.4851 17.9877 23.4851C17.9882 23.4849 17.9876 23.4852 17.9853 23.4852V25.9852C19.3657 25.9852 20.4803 24.8705 20.4803 23.4901H17.9803ZM17.9803 19.2452V23.4901H20.4803V19.2452H17.9803Z" fill="white"/>
</svg>
