<svg width="24" height="24" viewBox="0 0 24 24" fill="none" xmlns="http://www.w3.org/2000/svg">
<g filter="url(#filter0_b_13_5163)">
<path fill-rule="evenodd" clip-rule="evenodd" d="M12.0001 21.9999C6.4801 21.9999 2.0001 17.5099 2.0001 11.9999C2.0001 6.47991 6.4801 1.99991 12.0001 1.99991C17.5101 1.99991 22.0001 6.47991 22.0001 11.9999C22.0001 17.5099 17.5101 21.9999 12.0001 21.9999ZM16.0001 10.0199C15.7001 9.72991 15.2301 9.72991 14.9401 10.0299L12.0001 12.9799L9.0601 10.0299C8.7701 9.72991 8.2901 9.72991 8.0001 10.0199C7.7001 10.3199 7.7001 10.7899 8.0001 11.0799L11.4701 14.5699C11.6101 14.7099 11.8001 14.7899 12.0001 14.7899C12.2001 14.7899 12.3901 14.7099 12.5301 14.5699L16.0001 11.0799C16.1501 10.9399 16.2201 10.7499 16.2201 10.5599C16.2201 10.3599 16.1501 10.1699 16.0001 10.0199Z" fill="#42ACF9"/>
</g>
<defs>
<filter id="filter0_b_13_5163" x="-4" y="-4" width="32" height="32" filterUnits="userSpaceOnUse" color-interpolation-filters="sRGB">
<feFlood flood-opacity="0" result="BackgroundImageFix"/>
<feGaussianBlur in="BackgroundImageFix" stdDeviation="2"/>
<feComposite in2="SourceAlpha" operator="in" result="effect1_backgroundBlur_13_5163"/>
<feBlend mode="normal" in="SourceGraphic" in2="effect1_backgroundBlur_13_5163" result="shape"/>
</filter>
</defs>
</svg>
