<svg width="20" height="20" viewBox="0 0 20 20" fill="none" xmlns="http://www.w3.org/2000/svg">
<path opacity="0.24" d="M0.738432 8.115C0.851437 8.01833 1.27813 7.605 1.6756 7.265C4.00584 5.12667 10.0848 1.62667 13.2664 0.558333C13.7496 0.386667 14.9713 0.0233333 15.624 0C16.2494 0 16.8456 0.12 17.4145 0.363333C18.1237 0.703333 18.6926 1.23833 19.0044 1.87C19.2051 2.30833 19.5168 3.62 19.5168 3.64333C19.8285 5.07833 20 7.41 20 9.98667C20 12.4417 19.8285 14.6783 19.5733 16.135C19.5441 16.1583 19.2323 17.7883 18.8914 18.3467C18.266 19.3667 17.0443 20 15.737 20H15.624C14.7725 19.975 12.982 19.3417 12.982 19.3183C9.97175 18.2483 4.03312 14.92 1.64637 12.7083C1.64637 12.7083 0.974184 12.14 0.681929 11.785C0.226011 11.275 0 10.6433 0 10.0117C0 9.30667 0.255236 8.65 0.738432 8.115Z" fill="#6C6C6C"/>
</svg>
