<svg width="25" height="24" viewBox="0 0 25 24" fill="none" xmlns="http://www.w3.org/2000/svg">
<path fill-rule="evenodd" clip-rule="evenodd" d="M12.5 22C21.8828 22 23 19.1902 23 13.102C23 8.83459 22.4353 6.55119 18.8788 5.56962C18.5523 5.46655 18.1901 5.27024 17.8967 4.94754C17.4228 4.42853 17.0766 2.8347 15.9325 2.3525C14.7883 1.87152 10.1933 1.89361 9.06752 2.3525C7.943 2.81261 7.57717 4.42853 7.1033 4.94754C6.80989 5.27024 6.44897 5.46655 6.12119 5.56962C2.56471 6.55119 2 8.83459 2 13.102C2 19.1902 3.11715 22 12.5 22Z" fill="#189EFF" stroke="#189EFF" stroke-width="3" stroke-linecap="round" stroke-linejoin="round"/>
<path fill-rule="evenodd" clip-rule="evenodd" d="M18.2283 8.94512H18.2388H18.2283Z" fill="#F6F6F6"/>
<path d="M18.2283 8.94512H18.2388" stroke="#189EFF" stroke-width="3" stroke-linecap="round" stroke-linejoin="round"/>
<path fill-rule="evenodd" clip-rule="evenodd" d="M16.1684 13.0221C16.1684 10.9976 14.5258 9.35596 12.5002 9.35596C10.4746 9.35596 8.83203 10.9976 8.83203 13.0221C8.83203 15.0467 10.4746 16.6883 12.5002 16.6883C14.5258 16.6883 16.1684 15.0467 16.1684 13.0221Z" fill="#F6F6F6" stroke="#189EFF" stroke-width="3" stroke-linecap="round" stroke-linejoin="round"/>
</svg>
