<svg width="44" height="40" viewBox="0 0 44 40" fill="none" xmlns="http://www.w3.org/2000/svg">
<path fill-rule="evenodd" clip-rule="evenodd" d="M33.7867 7.3729C33.8733 7.52284 34.025 7.62993 34.22 7.62993C39.42 7.62993 43.6667 11.8282 43.6667 16.9688V29.692C43.6667 34.8327 39.42 39.0309 34.22 39.0309H9.78001C4.55834 39.0309 0.333344 34.8327 0.333344 29.692V16.9688C0.333344 11.8282 4.55834 7.62993 9.78001 7.62993C9.95334 7.62993 10.1267 7.54426 10.1917 7.3729L10.3217 7.11587C10.3964 6.96031 10.473 6.80053 10.5508 6.63833C11.1051 5.48283 11.7184 4.20445 12.0983 3.45313C13.095 1.52538 14.785 0.454403 16.8867 0.432983H27.0917C29.1933 0.454403 30.905 1.52538 31.9017 3.45313C32.2429 4.12786 32.7629 5.21473 33.264 6.26228C33.3674 6.4784 33.47 6.69286 33.57 6.90167L33.7867 7.3729ZM32.205 15.598C32.205 16.669 33.0717 17.5257 34.155 17.5257C35.2383 17.5257 36.1267 16.669 36.1267 15.598C36.1267 14.527 35.2383 13.6488 34.155 13.6488C33.0717 13.6488 32.205 14.527 32.205 15.598ZM18.2517 18.918C19.27 17.9113 20.5917 17.3758 22 17.3758C23.4083 17.3758 24.73 17.9113 25.7267 18.8966C26.7233 19.8819 27.265 21.1885 27.265 22.5807C27.2433 25.451 24.9033 27.7857 22 27.7857C20.5917 27.7857 19.27 27.2502 18.2733 26.2649C17.2767 25.2796 16.735 23.973 16.735 22.5807V22.5593C16.7133 21.2099 17.255 19.9033 18.2517 18.918ZM28.0017 28.5354C26.4633 30.0562 24.34 30.9986 22 30.9986C19.725 30.9986 17.6017 30.1204 15.9767 28.5354C14.3733 26.9289 13.485 24.8298 13.485 22.5807C13.4633 20.3531 14.3517 18.254 15.955 16.6475C17.58 15.0411 19.725 14.1629 22 14.1629C24.275 14.1629 26.42 15.0411 28.0233 16.6261C29.6267 18.2326 30.515 20.3531 30.515 22.5807C30.4933 24.9155 29.54 27.0146 28.0017 28.5354Z" fill="#42ACF9"/>
</svg>
