<svg width="90" height="57" viewBox="0 0 90 57" fill="none" xmlns="http://www.w3.org/2000/svg">
<path d="M34.8877 25.1529C34.8877 29.1306 40.2437 30.1251 46.5163 30.1251C52.8233 30.1251 58.1449 29.0944 58.1449 25.1167C58.1449 21.1373 52.7889 20.1428 46.5163 20.1428C40.2093 20.1428 34.8877 21.1735 34.8877 25.1529Z" fill="#151313"/>
<path d="M46.5162 16.353C50.7868 16.353 54.2113 12.9087 54.2113 8.61318C54.2113 4.31602 50.7868 0.875 46.5162 0.875C42.2455 0.875 38.821 4.31602 38.821 8.61318C38.821 12.9087 42.2455 16.353 46.5162 16.353Z" fill="#151313"/>
<path d="M57.4996 8.75286C57.4996 10.9426 56.8465 12.9825 55.7007 14.6783C55.5828 14.8529 55.6876 15.0883 55.8955 15.1245C56.1819 15.1739 56.4782 15.2019 56.7794 15.2101C59.7831 15.2892 62.4791 13.3447 63.2239 10.4174C64.3272 6.06919 61.0877 2.16553 56.9627 2.16553C56.5142 2.16553 56.0853 2.21327 55.6679 2.29889C55.6106 2.31206 55.5501 2.3384 55.5173 2.38944C55.478 2.452 55.5075 2.53597 55.5468 2.5903C56.7859 4.33716 57.4996 6.46763 57.4996 8.75286Z" fill="#151313"/>
<path d="M66.3701 20.6494C65.8201 19.4722 64.4926 18.6622 62.4743 18.2654C61.5216 18.0316 58.9435 17.7023 56.5454 17.7467C56.5094 17.7517 56.4898 17.778 56.4865 17.7945C56.4816 17.8175 56.4914 17.8554 56.5389 17.8801C57.6471 18.4317 61.9308 20.8305 61.3923 25.8899C61.3694 26.1089 61.5445 26.2983 61.7622 26.2653C62.8164 26.1139 65.5288 25.5277 66.3701 23.7019C66.835 22.7371 66.835 21.6158 66.3701 20.6494Z" fill="#151313"/>
<path d="M36.4398 15.2099C36.741 15.2017 37.0357 15.1753 37.3238 15.1243C37.5317 15.088 37.6364 14.8526 37.5186 14.6781C36.3727 12.9823 35.7196 10.9424 35.7196 8.75262C35.7196 6.46738 36.4333 4.33691 37.6724 2.59006C37.7117 2.53573 37.7395 2.45176 37.7019 2.3892C37.6692 2.3398 37.607 2.31181 37.5513 2.29864C37.1323 2.21303 36.7034 2.16528 36.2549 2.16528C32.1299 2.16528 28.8904 6.06895 29.9953 10.4171C30.7401 13.3445 33.4361 15.2889 36.4398 15.2099Z" fill="#151313"/>
<path d="M36.6812 17.8806C36.727 17.8543 36.7368 17.818 36.7319 17.7933C36.7286 17.7785 36.7106 17.7522 36.6746 17.7472C34.2749 17.7028 31.6984 18.0321 30.7441 18.2642C28.7258 18.6626 27.3999 19.4727 26.8499 20.6499C26.3834 21.6163 26.3834 22.7359 26.8499 23.7023C27.6913 25.5282 30.4036 26.1144 31.4578 26.2658C31.6755 26.2971 31.849 26.1094 31.8261 25.8888C31.2875 20.831 35.5713 18.4321 36.6812 17.8806Z" fill="#151313"/>
<path d="M10.1265 53.192C9.39052 53.192 8.72385 53.0747 8.12652 52.84C7.53985 52.5947 7.03318 52.232 6.60652 51.752C6.19052 51.272 5.87052 50.68 5.64652 49.976C5.42252 49.2613 5.31052 48.4347 5.31052 47.496C5.31052 46.5573 5.42252 45.7253 5.64652 45C5.87052 44.264 6.19052 43.6507 6.60652 43.16C7.03318 42.6587 7.53985 42.28 8.12652 42.024C8.72385 41.768 9.39052 41.64 10.1265 41.64C11.1292 41.64 11.9612 41.8533 12.6225 42.28C13.2838 42.7067 13.8118 43.352 14.2065 44.216L12.3985 45.176C12.2385 44.6747 11.9772 44.2747 11.6145 43.976C11.2518 43.6667 10.7558 43.512 10.1265 43.512C9.33718 43.512 8.70785 43.7787 8.23852 44.312C7.77985 44.8453 7.55052 45.592 7.55052 46.552V48.312C7.55052 49.2827 7.77985 50.0293 8.23852 50.552C8.70785 51.064 9.33718 51.32 10.1265 51.32C10.7558 51.32 11.2678 51.1493 11.6625 50.808C12.0678 50.4667 12.3612 50.0453 12.5425 49.544L14.2545 50.552C13.8492 51.384 13.3105 52.0347 12.6385 52.504C11.9665 52.9627 11.1292 53.192 10.1265 53.192ZM19.2401 53.192C18.6428 53.192 18.1041 53.0907 17.6241 52.888C17.1548 52.6853 16.7495 52.392 16.4081 52.008C16.0775 51.624 15.8215 51.1653 15.6401 50.632C15.4588 50.088 15.3681 49.48 15.3681 48.808C15.3681 48.136 15.4588 47.5333 15.6401 47C15.8215 46.4667 16.0775 46.0133 16.4081 45.64C16.7495 45.256 17.1548 44.9627 17.6241 44.76C18.1041 44.5573 18.6428 44.456 19.2401 44.456C19.8375 44.456 20.3761 44.5573 20.8561 44.76C21.3361 44.9627 21.7415 45.256 22.0721 45.64C22.4135 46.0133 22.6748 46.4667 22.8561 47C23.0375 47.5333 23.1281 48.136 23.1281 48.808C23.1281 49.48 23.0375 50.088 22.8561 50.632C22.6748 51.1653 22.4135 51.624 22.0721 52.008C21.7415 52.392 21.3361 52.6853 20.8561 52.888C20.3761 53.0907 19.8375 53.192 19.2401 53.192ZM19.2401 51.544C19.7841 51.544 20.2108 51.3787 20.5201 51.048C20.8295 50.7173 20.9841 50.232 20.9841 49.592V48.04C20.9841 47.4107 20.8295 46.9307 20.5201 46.6C20.2108 46.2693 19.7841 46.104 19.2401 46.104C18.7068 46.104 18.2855 46.2693 17.9761 46.6C17.6668 46.9307 17.5121 47.4107 17.5121 48.04V49.592C17.5121 50.232 17.6668 50.7173 17.9761 51.048C18.2855 51.3787 18.7068 51.544 19.2401 51.544ZM24.9438 53V44.648H26.9918V46.04H27.0718C27.2318 45.6027 27.4878 45.2293 27.8398 44.92C28.1918 44.6107 28.6824 44.456 29.3118 44.456C29.8878 44.456 30.3838 44.5947 30.7998 44.872C31.2158 45.1493 31.5251 45.5707 31.7278 46.136H31.7598C31.9091 45.6667 32.2024 45.272 32.6398 44.952C33.0878 44.6213 33.6478 44.456 34.3198 44.456C35.1411 44.456 35.7704 44.7387 36.2078 45.304C36.6558 45.8693 36.8798 46.6747 36.8798 47.72V53H34.8318V47.928C34.8318 46.7333 34.3838 46.136 33.4878 46.136C33.2851 46.136 33.0878 46.168 32.8958 46.232C32.7144 46.2853 32.5491 46.3707 32.3998 46.488C32.2611 46.5947 32.1491 46.7333 32.0638 46.904C31.9784 47.064 31.9358 47.256 31.9358 47.48V53H29.8878V47.928C29.8878 46.7333 29.4398 46.136 28.5438 46.136C28.3518 46.136 28.1598 46.168 27.9678 46.232C27.7864 46.2853 27.6211 46.3707 27.4718 46.488C27.3331 46.5947 27.2158 46.7333 27.1198 46.904C27.0344 47.064 26.9918 47.256 26.9918 47.48V53H24.9438ZM39.1469 53V44.648H41.1949V46.04H41.2749C41.4349 45.6027 41.6909 45.2293 42.0429 44.92C42.3949 44.6107 42.8856 44.456 43.5149 44.456C44.0909 44.456 44.5869 44.5947 45.0029 44.872C45.4189 45.1493 45.7282 45.5707 45.9309 46.136H45.9629C46.1122 45.6667 46.4056 45.272 46.8429 44.952C47.2909 44.6213 47.8509 44.456 48.5229 44.456C49.3442 44.456 49.9736 44.7387 50.4109 45.304C50.8589 45.8693 51.0829 46.6747 51.0829 47.72V53H49.0349V47.928C49.0349 46.7333 48.5869 46.136 47.6909 46.136C47.4882 46.136 47.2909 46.168 47.0989 46.232C46.9176 46.2853 46.7522 46.3707 46.6029 46.488C46.4642 46.5947 46.3522 46.7333 46.2669 46.904C46.1816 47.064 46.1389 47.256 46.1389 47.48V53H44.0909V47.928C44.0909 46.7333 43.6429 46.136 42.7469 46.136C42.5549 46.136 42.3629 46.168 42.1709 46.232C41.9896 46.2853 41.8242 46.3707 41.6749 46.488C41.5362 46.5947 41.4189 46.7333 41.3229 46.904C41.2376 47.064 41.1949 47.256 41.1949 47.48V53H39.1469ZM58.342 51.608H58.262C58.1873 51.8213 58.086 52.024 57.958 52.216C57.8407 52.3973 57.686 52.5627 57.494 52.712C57.3127 52.8613 57.0887 52.9787 56.822 53.064C56.566 53.1493 56.2673 53.192 55.926 53.192C55.062 53.192 54.4007 52.9093 53.942 52.344C53.4833 51.7787 53.254 50.9733 53.254 49.928V44.648H55.302V49.72C55.302 50.296 55.414 50.7387 55.638 51.048C55.862 51.3467 56.2193 51.496 56.71 51.496C56.9127 51.496 57.11 51.4693 57.302 51.416C57.5047 51.3627 57.6807 51.2827 57.83 51.176C57.9793 51.0587 58.102 50.92 58.198 50.76C58.294 50.5893 58.342 50.392 58.342 50.168V44.648H60.39V53H58.342V51.608ZM62.7563 53V44.648H64.8043V46.04H64.8843C65.0549 45.592 65.3216 45.2187 65.6843 44.92C66.0576 44.6107 66.5696 44.456 67.2203 44.456C68.0843 44.456 68.7456 44.7387 69.2043 45.304C69.6629 45.8693 69.8923 46.6747 69.8923 47.72V53H67.8443V47.928C67.8443 47.3307 67.7376 46.8827 67.5243 46.584C67.3109 46.2853 66.9589 46.136 66.4683 46.136C66.2549 46.136 66.0469 46.168 65.8443 46.232C65.6523 46.2853 65.4763 46.3707 65.3163 46.488C65.1669 46.5947 65.0443 46.7333 64.9483 46.904C64.8523 47.064 64.8043 47.256 64.8043 47.48V53H62.7563ZM73.1865 43.432C72.7598 43.432 72.4505 43.336 72.2585 43.144C72.0772 42.952 71.9865 42.7067 71.9865 42.408V42.088C71.9865 41.7893 72.0772 41.544 72.2585 41.352C72.4505 41.16 72.7598 41.064 73.1865 41.064C73.6025 41.064 73.9065 41.16 74.0985 41.352C74.2905 41.544 74.3865 41.7893 74.3865 42.088V42.408C74.3865 42.7067 74.2905 42.952 74.0985 43.144C73.9065 43.336 73.6025 43.432 73.1865 43.432ZM72.1625 44.648H74.2105V53H72.1625V44.648ZM79.1924 53C78.4884 53 77.9497 52.8187 77.5764 52.456C77.2137 52.0827 77.0324 51.5547 77.0324 50.872V46.28H75.8004V44.648H76.4404C76.7497 44.648 76.9577 44.5787 77.0644 44.44C77.1817 44.2907 77.2404 44.072 77.2404 43.784V42.36H79.0804V44.648H80.7924V46.28H79.0804V51.368H80.6644V53H79.1924ZM87.6888 44.648H89.6088L86.2488 54.488C86.1421 54.7867 86.0194 55.0427 85.8808 55.256C85.7528 55.48 85.5981 55.6613 85.4168 55.8C85.2354 55.9387 85.0168 56.04 84.7608 56.104C84.5048 56.168 84.2061 56.2 83.8648 56.2H82.6328V54.568H84.1368L84.5208 53.4L81.5288 44.648H83.5608L85.0168 49.064L85.5608 51.176H85.6568L86.2328 49.064L87.6888 44.648Z" fill="#151313"/>
</svg>
