<svg width="20" height="20" viewBox="0 0 20 20" fill="none" xmlns="http://www.w3.org/2000/svg">
<path d="M19.75 10C19.7504 11.6833 19.3149 13.3381 18.486 14.8032C17.6572 16.2683 16.4631 17.4938 15.02 18.3605C13.577 19.2272 11.9341 19.7055 10.2514 19.7489C8.56863 19.7923 6.9033 19.3993 5.4175 18.6082L2.22531 19.6722C1.96102 19.7604 1.6774 19.7731 1.40624 19.7092C1.13509 19.6452 0.887113 19.5069 0.69011 19.3099C0.493108 19.1129 0.354864 18.8649 0.290873 18.5938C0.226882 18.3226 0.239673 18.039 0.327812 17.7747L1.39187 14.5825C0.696389 13.2749 0.307935 11.8261 0.255998 10.3459C0.20406 8.8658 0.490005 7.39328 1.09213 6.04015C1.69425 4.68703 2.59672 3.48885 3.73105 2.53658C4.86537 1.58431 6.20173 0.902976 7.63869 0.544287C9.07565 0.185598 10.5754 0.158985 12.0242 0.466468C13.473 0.773952 14.8327 1.40745 16.0001 2.31888C17.1675 3.2303 18.1119 4.3957 18.7616 5.72662C19.4114 7.05753 19.7494 8.51898 19.75 10Z" fill="#25A3FF"/>
</svg>
