<svg width="28" height="28" viewBox="0 0 28 28" fill="none" xmlns="http://www.w3.org/2000/svg">
<path fill-rule="evenodd" clip-rule="evenodd" d="M19.4428 2.34543C21.1211 2.24054 22.7761 2.82327 24.0231 3.96542C25.1653 5.21247 25.748 6.86742 25.6548 8.55734V19.4427C25.7597 21.1327 25.1653 22.7876 24.0348 24.0347C22.7877 25.1768 21.1211 25.7595 19.4428 25.6546H8.55733C6.8674 25.7595 5.21243 25.1768 3.96537 24.0347C2.82321 22.7876 2.24048 21.1327 2.34537 19.4427V8.55734C2.24048 6.86742 2.82321 5.21247 3.96537 3.96542C5.21243 2.82327 6.8674 2.24054 8.55733 2.34543H19.4428ZM12.8113 19.6525L20.6549 11.7857C21.3658 11.0631 21.3658 9.89762 20.6549 9.18669L19.1398 7.67159C18.4172 6.949 17.2517 6.949 16.5291 7.67159L15.7483 8.4641C15.6317 8.58065 15.6317 8.77878 15.7483 8.89532C15.7483 8.89532 17.6014 10.7368 17.6363 10.7834C17.7645 10.9232 17.8461 11.1097 17.8461 11.3195C17.8461 11.739 17.5081 12.0887 17.0769 12.0887C16.8788 12.0887 16.6923 12.0071 16.5641 11.8789L14.6178 9.94424C14.5245 9.851 14.3614 9.851 14.2681 9.94424L8.70884 15.5035C8.32423 15.8881 8.10279 16.4009 8.09114 16.9487L8.02121 19.7108C8.02121 19.8623 8.06783 20.0022 8.17272 20.1071C8.27762 20.2119 8.41747 20.2702 8.56898 20.2702H11.3078C11.8673 20.2702 12.4034 20.0488 12.8113 19.6525Z" fill="#585858"/>
</svg>
