<svg width="43" height="43" viewBox="0 0 43 43" fill="none" xmlns="http://www.w3.org/2000/svg">
<path fill-rule="evenodd" clip-rule="evenodd" d="M15.906 11.4283C15.906 14.7727 13.1488 17.4835 9.74465 17.4835C6.34249 17.4835 3.58334 14.7727 3.58334 11.4283C3.58334 8.08576 6.34249 5.375 9.74465 5.375C13.1488 5.375 15.906 8.08576 15.906 11.4283ZM36.7172 8.77617C38.2063 8.77617 39.4167 9.9653 39.4167 11.4283C39.4167 12.8932 38.2063 14.0823 36.7172 14.0823H24.9361C23.4451 14.0823 22.2347 12.8932 22.2347 11.4283C22.2347 9.9653 23.4451 8.77617 24.9361 8.77617H36.7172ZM6.28476 28.5913H18.0659C19.557 28.5913 20.7673 29.7805 20.7673 31.2454C20.7673 32.7083 19.557 33.8994 18.0659 33.8994H6.28476C4.79371 33.8994 3.58334 32.7083 3.58334 31.2454C3.58334 29.7805 4.79371 28.5913 6.28476 28.5913ZM33.2554 37.2269C36.6595 37.2269 39.4167 34.5161 39.4167 31.1736C39.4167 27.8292 36.6595 25.1184 33.2554 25.1184C29.8532 25.1184 27.0941 27.8292 27.0941 31.1736C27.0941 34.5161 29.8532 37.2269 33.2554 37.2269Z" fill="#189EFF"/>
</svg>
