<svg width="23" height="27" viewBox="0 0 23 27" fill="none" xmlns="http://www.w3.org/2000/svg">
<path d="M12.8293 13.1701C10.9743 13.9279 15.3335 21.9483 11.9764 25.3507" stroke="#42ACF9" stroke-width="1.3608" stroke-linecap="round"/>
<path d="M8.48335 13.964C7.11739 15.4154 5.66329 17.8802 4.79601 18.9007C3.10483 20.4882 2.24068 20.858 1.95569 21.1685C1.19423 20.3187 0.459756 18.6889 0.65317 17.549C0.969427 15.6822 3.70248 14.0999 4.74099 13.7027C6.48259 13.0266 7.08502 12.9636 8.48335 13.964Z" fill="#42ACF9"/>
<path d="M1.86536 21.0679C1.88294 21.0438 1.89788 21.005 1.91985 20.9994C2.44723 20.8662 4.00212 19.5771 4.26229 19.3698C5.88398 18.0743 6.9317 14.8587 9.53607 13.0773C10.5504 12.3083 12.3593 11.9669 12.7329 13.1652C15.4664 21.9664 3.62328 23.1537 1.86536 21.0679Z" fill="#42ACF9"/>
<path fill-rule="evenodd" clip-rule="evenodd" d="M10.5333 0.649353C12.3961 2.24296 13.5868 4.67704 13.5868 7.40453C13.5868 7.98283 13.5333 8.54794 13.4312 9.09464C13.8479 8.55669 14.3274 8.06015 14.8685 7.61689C17.1276 5.76619 19.9735 5.24225 22.5918 5.92521C22.1855 8.10641 21.0731 10.1326 19.299 11.586C17.3047 13.2198 14.853 13.8196 12.5044 13.4679C12.5647 13.6057 12.622 13.7448 12.6763 13.8852C10.1202 15.0555 7.104 15.0441 4.44004 13.5806C2.34787 12.4313 0.8265 10.5805 0 8.4437C2.55603 7.27337 5.57228 7.28483 8.23624 8.7483C8.53169 8.9106 8.81574 9.08689 9.08807 9.276C8.76029 8.33857 8.58128 7.32513 8.58128 6.26759C8.58128 4.12554 9.31567 2.16447 10.5333 0.649353Z" fill="#42ACF9"/>
<path fill-rule="evenodd" clip-rule="evenodd" d="M10.7301 12.1412C13.0919 11.7017 15.6146 12.3487 17.5668 14.1367C19.0999 15.541 20.0221 17.4116 20.3083 19.375C17.9465 19.8145 15.4238 19.1675 13.4716 17.3795C11.9385 15.9753 11.0163 14.1046 10.7301 12.1412Z" fill="#42ACF9"/>
<path fill-rule="evenodd" clip-rule="evenodd" d="M14.4003 22.4397C15.0864 22.3563 15.7334 21.9909 16.135 21.3895C16.4503 20.9171 16.5611 20.3791 16.489 19.8698C15.8029 19.9532 15.1559 20.3186 14.7543 20.92C14.439 21.3924 14.3282 21.9304 14.4003 22.4397Z" fill="#42ACF9"/>
<path fill-rule="evenodd" clip-rule="evenodd" d="M12.0861 23.2407C12.0178 22.6577 11.7273 22.1474 11.2516 21.8822C10.878 21.6739 10.4533 21.6519 10.0519 21.7844C10.1202 22.3674 10.4107 22.8777 10.8864 23.1429C11.26 23.3512 11.6847 23.3731 12.0861 23.2407Z" fill="#42ACF9"/>
<path d="M9.11446 13.3649C9.10196 13.3497 9.08944 13.3345 9.07691 13.3194C8.79453 12.9773 8.50599 12.6277 8.31016 12.209C7.86676 11.268 8.97109 11.2873 9.56494 11.4913C10.267 11.7651 10.4359 10.8158 10.5607 10.1143C10.5925 9.9354 10.6215 9.7726 10.6557 9.65035C10.7553 9.29068 11.3572 9.24046 11.5244 9.60179C11.5477 9.64232 11.5818 9.71738 11.6251 9.81304C11.8626 10.3367 12.38 11.4777 12.9553 10.9519C13.9777 10.0099 14.1364 11.22 13.7002 12.1452C13.629 12.3075 13.4192 12.3064 13.1813 12.3052C12.921 12.3039 12.6271 12.3023 12.4448 12.5148C12.3035 12.7145 11.582 12.9607 11.3625 12.8528C10.7429 12.5482 9.98582 12.7034 9.11446 13.3649Z" fill="white"/>
<path d="M9.11446 13.3649C9.10196 13.3497 9.08944 13.3345 9.07691 13.3194C8.79453 12.9773 8.50599 12.6277 8.31016 12.209C7.86676 11.268 8.97109 11.2873 9.56494 11.4913C10.267 11.7651 10.4359 10.8158 10.5607 10.1143C10.5925 9.9354 10.6215 9.7726 10.6557 9.65035C10.7553 9.29068 11.3572 9.24046 11.5244 9.60179C11.5477 9.64232 11.5818 9.71738 11.6251 9.81304C11.8626 10.3367 12.38 11.4777 12.9553 10.9519C13.9777 10.0099 14.1364 11.22 13.7002 12.1452C13.629 12.3075 13.4192 12.3064 13.1813 12.3052C12.921 12.3039 12.6271 12.3023 12.4448 12.5148C12.3035 12.7145 11.582 12.9607 11.3625 12.8528C10.7429 12.5482 9.98582 12.7034 9.11446 13.3649Z" stroke="#42ACF9"/>
</svg>
