<svg width="20" height="20" viewBox="0 0 20 20" fill="none" xmlns="http://www.w3.org/2000/svg">
<path d="M15.7098 0.790694C15.1108 0.589694 14.4808 0.500694 13.8498 0.500694C12.4598 0.490694 11.1108 0.950694 9.9998 1.79969C9.9098 1.73069 9.7998 1.66969 9.6998 1.61069C9.5998 1.54969 9.4198 1.40069 9.2698 1.32069L8.8898 1.15069C8.6898 1.04069 8.4808 0.960694 8.2598 0.889694C8.2398 0.870694 8.2098 0.849694 8.1698 0.830694H8.1108C7.5198 0.629694 6.9098 0.519694 6.2798 0.500694H6.1698C5.8898 0.500694 5.6108 0.519694 5.3298 0.560694H5.2098C4.9098 0.599694 4.6108 0.669694 4.3208 0.769694C0.589803 1.99069 -0.740197 6.04069 0.389803 9.58069C1.0298 11.3897 2.0608 13.0307 3.4008 14.3797C5.3498 16.2597 7.4808 17.9197 9.7698 19.3397L10.0298 19.5007L10.2798 19.3497C12.5608 17.9197 14.6798 16.2597 16.6108 14.3897C17.9598 13.0407 18.9898 11.3897 19.6198 9.58069C20.7308 6.04069 19.4008 1.99069 15.7098 0.790694Z" fill="#FE0303"/>
</svg>
