<svg width="20" height="20" viewBox="0 0 20 20" fill="none" xmlns="http://www.w3.org/2000/svg">
<path d="M15.7098 0.790648C15.1108 0.589648 14.4808 0.500648 13.8498 0.500648C12.4598 0.490648 11.1108 0.950648 9.99977 1.79965C9.90977 1.73065 9.79977 1.66965 9.69977 1.61065C9.59977 1.54965 9.41977 1.40065 9.26977 1.32065L8.88977 1.15065C8.68977 1.04065 8.48077 0.960648 8.25977 0.889648C8.23977 0.870648 8.20977 0.849648 8.16977 0.830648H8.11077C7.51977 0.629648 6.90977 0.519648 6.27977 0.500648H6.16977C5.88977 0.500648 5.61077 0.519648 5.32977 0.560648H5.20977C4.90977 0.599648 4.61077 0.669648 4.32077 0.769648C0.589773 1.99065 -0.740228 6.04065 0.389772 9.58065C1.02977 11.3896 2.06077 13.0306 3.40077 14.3796C5.34977 16.2596 7.48077 17.9196 9.76977 19.3396L10.0298 19.5006L10.2798 19.3496C12.5608 17.9196 14.6798 16.2596 16.6108 14.3896C17.9598 13.0406 18.9898 11.3896 19.6198 9.58065C20.7308 6.04065 19.4008 1.99065 15.7098 0.790648Z" fill="#BABABA"/>
</svg>
