<svg width="276" height="234" viewBox="0 0 276 234" fill="none" xmlns="http://www.w3.org/2000/svg">
<path fill-rule="evenodd" clip-rule="evenodd" d="M107.795 161.723C116.381 167.544 126.846 171.063 137.982 171.063C167.498 171.063 191.513 146.832 191.513 117.051C191.513 105.815 188.025 95.2562 182.256 86.5925L167.632 101.348C170.047 105.95 171.389 111.365 171.389 117.051C171.389 135.596 156.362 150.758 137.982 150.758C132.347 150.758 126.98 149.404 122.419 146.968L107.795 161.723ZM226.396 42.0558C245.85 59.9247 262.352 84.0205 274.695 112.99C275.768 115.562 275.768 118.54 274.695 120.977C245.984 188.391 194.867 228.731 137.982 228.731H137.848C111.954 228.731 87.1337 220.203 65.265 204.635L39.2372 230.897C37.2247 232.927 34.6756 233.875 32.1265 233.875C29.5774 233.875 26.8941 232.927 25.0158 230.897C21.6617 227.513 21.125 222.098 23.8083 218.172L24.2108 217.631L222.639 17.4185L222.639 17.4184C222.908 17.1477 223.176 16.877 223.31 16.6063L223.31 16.6062C223.579 16.3355 223.847 16.0648 223.981 15.7941L236.592 3.0693C240.617 -0.856432 246.923 -0.856432 250.814 3.0693C254.839 6.99502 254.839 13.4928 250.814 17.4185L226.396 42.0558ZM84.3525 117.104C84.3525 120.623 84.755 124.143 85.2917 127.392L35.651 177.479C22.2346 161.776 10.5623 142.824 1.30498 121.029C0.231672 118.593 0.231672 115.614 1.30498 113.042C30.0161 45.6282 81.1326 5.42338 137.884 5.42338H138.018C157.204 5.42338 175.852 10.026 193.025 18.6896L148.215 63.9032C144.995 63.3617 141.506 62.9556 138.018 62.9556C108.368 62.9556 84.3525 87.1868 84.3525 117.104Z" fill="#D92727"/>
</svg>
