<svg width="42" height="42" viewBox="0 0 42 42" fill="none" xmlns="http://www.w3.org/2000/svg">
<path fill-rule="evenodd" clip-rule="evenodd" d="M11.9712 41.8333H30.0267C37.0898 41.8333 41.8333 36.8789 41.8333 29.5068V12.4931C41.8333 5.12103 37.0898 0.166626 30.0288 0.166626H11.9712C4.91019 0.166626 0.166656 5.12103 0.166656 12.4931V29.5068C0.166656 36.8789 4.91019 41.8333 11.9712 41.8333ZM13.7059 18.9166C10.8338 18.9166 8.49999 16.5797 8.49999 13.7083C8.49999 10.8369 10.8338 8.49996 13.7059 8.49996C16.576 8.49996 18.9119 10.8369 18.9119 13.7083C18.9119 16.5797 16.576 18.9166 13.7059 18.9166ZM37.2934 27.1124C37.991 28.9011 37.6285 31.0511 36.8827 32.8227C35.9987 34.9297 34.306 36.525 32.1733 37.2216C31.2264 37.5312 30.2334 37.6666 29.2425 37.6666H11.6847C9.93748 37.6666 8.3914 37.2474 7.12396 36.4669C6.32997 35.9767 6.18961 34.8458 6.77829 34.1127C7.76292 32.8872 8.73497 31.6574 9.71541 30.4169C11.5841 28.0433 12.8432 27.3553 14.2426 27.9595C14.8103 28.2089 15.3802 28.583 15.9667 28.9785C17.5296 30.0406 19.702 31.5005 22.5637 29.9159C24.5221 28.8191 25.6579 26.9377 26.647 25.2994L26.6636 25.272C26.7337 25.157 26.8031 25.0421 26.8724 24.9275C27.2048 24.3774 27.5328 23.8348 27.9038 23.3348C28.3689 22.7092 30.093 20.7527 32.3262 22.1459C33.7487 23.0231 34.9449 24.2099 36.2249 25.4805C36.7131 25.9664 37.0608 26.519 37.2934 27.1124Z" fill="#42ACF9"/>
</svg>
