<svg width="32" height="32" viewBox="0 0 32 32" fill="none" xmlns="http://www.w3.org/2000/svg">
<path fill-rule="evenodd" clip-rule="evenodd" d="M2.66681 15.9991C2.66681 8.64044 8.64014 2.66577 16.0001 2.66577C23.3735 2.66577 29.3335 8.64044 29.3335 15.9991C29.3335 23.3604 23.3735 29.3324 16.0001 29.3324C8.64014 29.3324 2.66681 23.3604 2.66681 15.9991ZM14.8268 10.9458C14.8268 10.3071 15.3601 9.77244 16.0001 9.77244C16.6401 9.77244 17.1601 10.3071 17.1601 10.9458V16.8391C17.1601 17.4804 16.6401 17.9991 16.0001 17.9991C15.3601 17.9991 14.8268 17.4804 14.8268 16.8391V10.9458ZM16.0135 22.2404C15.3601 22.2404 14.8401 21.7071 14.8401 21.0671C14.8401 20.4271 15.3601 19.9071 16.0001 19.9071C16.6535 19.9071 17.1735 20.4271 17.1735 21.0671C17.1735 21.7071 16.6535 22.2404 16.0135 22.2404Z" fill="#DF1010"/>
</svg>
