<svg width="28" height="28" viewBox="0 0 28 28" fill="none" xmlns="http://www.w3.org/2000/svg">
<path fill-rule="evenodd" clip-rule="evenodd" d="M11.5446 13.1017C11.0342 13.1017 10.6306 13.4983 10.6306 14C10.6306 14.49 11.0342 14.8983 11.5446 14.8983H18.6667V20.475C18.6667 23.3333 16.3045 25.6667 13.3845 25.6667H7.60369C4.6955 25.6667 2.33334 23.345 2.33334 20.4867V7.52499C2.33334 4.65499 4.70737 2.33333 7.61556 2.33333H13.4082C16.3045 2.33333 18.6667 4.65499 18.6667 7.51333V13.1017H11.5446ZM22.9019 9.96356L26.3086 13.3586C26.4836 13.5336 26.5769 13.7552 26.5769 14.0002C26.5769 14.2336 26.4836 14.4669 26.3086 14.6302L22.9019 18.0252C22.7269 18.2002 22.4936 18.2936 22.2719 18.2936C22.0386 18.2936 21.8052 18.2002 21.6302 18.0252C21.2802 17.6752 21.2802 17.1036 21.6302 16.7536L23.4969 14.8986H18.6669V13.1019H23.4969L21.6302 11.2469C21.2802 10.8969 21.2802 10.3252 21.6302 9.97523C21.9802 9.61356 22.5519 9.61356 22.9019 9.96356Z" fill="#DF1010"/>
</svg>
