<svg width="40" height="42" viewBox="0 0 40 42" fill="none" xmlns="http://www.w3.org/2000/svg">
<path fill-rule="evenodd" clip-rule="evenodd" d="M31.1781 15.3936C31.1781 17.5915 31.7314 18.8869 32.9489 20.3798C33.8715 21.4796 34.1663 22.8914 34.1663 24.423C34.1663 25.9529 33.6876 27.4052 32.7286 28.5844C31.473 29.9979 29.7022 30.9003 27.8951 31.0572C25.2763 31.2916 22.6558 31.489 20.0005 31.489C17.3436 31.489 14.7248 31.3709 12.1059 31.0572C10.2971 30.9003 8.52637 29.9979 7.27245 28.5844C6.31337 27.4052 5.83301 25.9529 5.83301 24.423C5.83301 22.8914 6.12951 21.4796 7.05049 20.3798C8.30607 18.8869 8.82287 17.5915 8.82287 15.3936V14.648C8.82287 11.7046 9.52189 9.77991 10.9613 7.89576C13.1014 5.14797 16.5319 3.5 19.926 3.5H20.075C23.542 3.5 27.0834 5.22728 29.1871 8.09316C30.552 9.93854 31.1781 11.7821 31.1781 14.648V15.3936ZM15.1225 35.1065C15.1225 34.2252 15.8927 33.8216 16.605 33.6488C17.4382 33.4638 22.5151 33.4638 23.3483 33.6488C24.0606 33.8216 24.8308 34.2252 24.8308 35.1065C24.7894 35.9454 24.3207 36.6892 23.673 37.1616C22.8332 37.849 21.8476 38.2843 20.8173 38.4412C20.2475 38.5187 19.6876 38.5205 19.1377 38.4412C18.1057 38.2843 17.1201 37.849 16.282 37.1598C15.6326 36.6892 15.1639 35.9454 15.1225 35.1065Z" fill="#189EFF"/>
</svg>
