<svg width="20" height="20" viewBox="0 0 20 20" fill="none" xmlns="http://www.w3.org/2000/svg">
<path fill-rule="evenodd" clip-rule="evenodd" d="M15.0105 12.601C15.4245 12.601 15.7605 12.265 15.7605 11.851V9.99902C15.7605 9.58502 15.4245 9.24902 15.0105 9.24902H9.31851C8.99451 8.18202 8.01251 7.39802 6.84051 7.39802C5.40651 7.39802 4.23951 8.56502 4.23951 9.99902C4.23951 11.434 5.40651 12.601 6.84051 12.601C8.01251 12.601 8.99451 11.817 9.31851 10.749H11.4305V11.851C11.4305 12.265 11.7665 12.601 12.1805 12.601C12.5945 12.601 12.9305 12.265 12.9305 11.851V10.749H14.2605V11.851C14.2605 12.265 14.5965 12.601 15.0105 12.601ZM5.66551 -0.000976562H14.3345C17.7225 -0.000976562 19.9995 2.37702 19.9995 5.91602V14.083C19.9995 17.622 17.7225 19.999 14.3335 19.999H5.66551C2.27651 19.999 -0.000488281 17.622 -0.000488281 14.083V5.91602C-0.000488281 2.37702 2.27651 -0.000976562 5.66551 -0.000976562ZM5.73861 9.99992C5.73861 9.39192 6.23361 8.89792 6.84061 8.89792C7.44761 8.89792 7.94261 9.39192 7.94261 9.99992C7.94261 10.6069 7.44761 11.1009 6.84061 11.1009C6.23361 11.1009 5.73861 10.6069 5.73861 9.99992Z" fill="#189EFF"/>
</svg>
