<svg width="40" height="40" viewBox="0 0 40 40" fill="none" xmlns="http://www.w3.org/2000/svg">
<path fill-rule="evenodd" clip-rule="evenodd" d="M17.6294 1.83337C8.89036 1.83337 1.83331 8.98955 1.83331 17.7832C1.83331 26.577 8.89036 33.7331 17.6294 33.7331C26.3684 33.7331 33.4254 26.577 33.4254 17.7832C33.4254 13.5582 31.7651 9.50306 28.8045 6.51068C25.8435 3.51775 21.824 1.83337 17.6294 1.83337ZM4.83331 17.7832C4.83331 10.6161 10.5774 4.83337 17.6294 4.83337C21.0179 4.83337 24.2709 6.19379 26.6719 8.62062C29.0734 11.048 30.4254 14.3436 30.4254 17.7832C30.4254 24.9504 24.6814 30.7331 17.6294 30.7331C10.5774 30.7331 4.83331 24.9504 4.83331 17.7832ZM31.6889 29.4238L35.9467 32.8607H36.0206C36.882 33.7314 36.882 35.143 36.0206 36.0137C35.1592 36.8844 33.7626 36.8844 32.9012 36.0137L29.3678 31.9642C29.0338 31.6277 28.846 31.1707 28.846 30.694C28.846 30.2173 29.0338 29.7603 29.3678 29.4238C30.012 28.784 31.0447 28.784 31.6889 29.4238Z" fill="#42ACF9"/>
</svg>
