<svg width="40" height="40" viewBox="0 0 40 40" fill="none" xmlns="http://www.w3.org/2000/svg">
<path fill-rule="evenodd" clip-rule="evenodd" d="M3.33334 17.7832C3.33334 9.8028 9.73391 3.33337 17.6294 3.33337C21.421 3.33337 25.0572 4.85577 27.7383 7.56565C30.4193 10.2755 31.9255 13.9509 31.9255 17.7832C31.9255 25.7637 25.5249 32.2331 17.6294 32.2331C9.73391 32.2331 3.33334 25.7637 3.33334 17.7832ZM31.6889 29.4238L35.9467 32.8607H36.0206C36.882 33.7314 36.882 35.143 36.0206 36.0137C35.1592 36.8844 33.7626 36.8844 32.9012 36.0137L29.3679 31.9642C29.0338 31.6277 28.8461 31.1707 28.8461 30.694C28.8461 30.2173 29.0338 29.7603 29.3679 29.4238C30.0121 28.784 31.0447 28.784 31.6889 29.4238Z" fill="#189EFF"/>
</svg>
