<svg width="33" height="35" viewBox="0 0 33 35" fill="none" xmlns="http://www.w3.org/2000/svg">
<path fill-rule="evenodd" clip-rule="evenodd" d="M31.0935 20.0928C31.7148 20.4225 32.194 20.943 32.5313 21.4636C33.188 22.5394 33.1348 23.8581 32.4958 25.0206L31.2533 27.1028C30.5966 28.2132 29.3718 28.9073 28.1116 28.9073C27.4903 28.9073 26.7981 28.7338 26.2301 28.3868C25.7686 28.0918 25.2361 27.9877 24.6681 27.9877C22.9109 27.9877 21.4377 29.4278 21.3844 31.1456C21.3844 33.141 19.7514 34.7026 17.7102 34.7026H15.2962C13.2373 34.7026 11.6043 33.141 11.6043 31.1456C11.5688 29.4278 10.0956 27.9877 8.33832 27.9877C7.75258 27.9877 7.22009 28.0918 6.77634 28.3868C6.20835 28.7338 5.49836 28.9073 4.89486 28.9073C3.61688 28.9073 2.39214 28.2132 1.7354 27.1028L0.510666 25.0206C-0.146076 23.8928 -0.181576 22.5394 0.475166 21.4636C0.759163 20.943 1.29166 20.4225 1.89515 20.0928C2.39214 19.8499 2.71164 19.4508 3.01339 18.9823C3.90088 17.4901 3.36838 15.5294 1.85965 14.6445C0.102421 13.6555 -0.465572 11.4519 0.546166 9.73409L1.7354 7.68663C2.76489 5.96885 4.96586 5.36156 6.74084 6.36793C8.28507 7.2008 10.2908 6.64556 11.196 5.17069C11.48 4.68486 11.6398 4.16432 11.6043 3.64378C11.5688 2.96708 11.764 2.32508 12.1013 1.80454C12.758 0.728755 13.9473 0.0347026 15.243 0H17.7457C19.0592 0 20.2484 0.728755 20.9052 1.80454C21.2247 2.32508 21.4377 2.96708 21.3844 3.64378C21.3489 4.16432 21.5087 4.68486 21.7927 5.17069C22.6979 6.64556 24.7036 7.2008 26.2656 6.36793C28.0228 5.36156 30.2416 5.96885 31.2533 7.68663L32.4425 9.73409C33.472 11.4519 32.904 13.6555 31.129 14.6445C29.6203 15.5294 29.0878 17.4901 29.9931 18.9823C30.2771 19.4508 30.5966 19.8499 31.0935 20.0928ZM11.4795 17.3687C11.4795 20.0929 13.7337 22.2618 16.5204 22.2618C19.3071 22.2618 21.5081 20.0929 21.5081 17.3687C21.5081 14.6445 19.3071 12.4583 16.5204 12.4583C13.7337 12.4583 11.4795 14.6445 11.4795 17.3687Z" fill="#189EFF"/>
</svg>
