<svg width="18" height="18" viewBox="0 0 18 18" fill="none" xmlns="http://www.w3.org/2000/svg">
<path d="M0.999969 3C0.33029 2.32997 -0.167453 1.17256 0.502226 0.502529C1.1719 -0.167503 2.33029 0.329984 2.99997 1.00002L8.99997 7.00001L15 1C15.6696 0.329968 16.828 -0.167339 17.4977 0.502693C18.1674 1.17273 17.6696 2.32997 17 3L11 9.00175L17 15C17.6696 15.67 18.1579 16.8274 17.4882 17.4975C16.8185 18.1675 15.6696 17.67 15 17L8.99997 11L2.99997 17C2.33029 17.67 1.18079 18.1598 0.511106 17.4898C-0.158572 16.8198 0.330289 15.67 0.999967 15L6.99997 9L0.999969 3Z" fill="#8C8C8C" fill-opacity="0.6"/>
</svg>
