<svg width="28" height="28" viewBox="0 0 28 28" fill="none" xmlns="http://www.w3.org/2000/svg">
<path fill-rule="evenodd" clip-rule="evenodd" d="M15.5833 7.52565C15.5245 6.95826 15.4634 6.36957 15.3129 5.78213C14.9031 4.37678 13.7678 3.50001 12.5506 3.50001C11.8716 3.49751 11.0128 3.91585 10.5259 4.33921L6.49001 7.7198H4.37726C2.82236 7.7198 1.57209 8.91847 1.33598 10.6482C1.13534 12.3091 1.08641 15.4442 1.33598 17.2716C1.55251 19.0991 2.74651 20.2802 4.37726 20.2802H6.49001L10.6042 23.7109C11.0262 24.0779 11.7713 24.4987 12.4564 24.4987C12.5004 24.5 12.5395 24.5 12.5787 24.5C13.8192 24.5 14.9116 23.5906 15.3215 22.1891C15.4759 21.5965 15.53 21.0411 15.5823 20.5044L15.5833 20.4944L15.6383 19.9596C15.8487 18.2248 15.8487 9.76393 15.6383 8.0417L15.5833 7.52565ZM20.3077 7.57701C19.9712 7.08101 19.3045 6.95701 18.8164 7.30145C18.3331 7.6484 18.2133 8.33229 18.5497 8.82704C19.4856 10.2061 20.0006 12.0423 20.0006 14C20.0006 15.9565 19.4856 17.7939 18.5497 19.173C18.2133 19.6677 18.3331 20.3516 18.8176 20.6985C18.9987 20.8263 19.2103 20.8939 19.4281 20.8939C19.7792 20.8939 20.107 20.7173 20.3077 20.423C21.4894 18.682 22.1415 16.4011 22.1415 14C22.1415 11.5989 21.4894 9.31803 20.3077 7.57701ZM22.5051 3.75791C22.992 3.41221 23.6611 3.53872 23.9951 4.03347C25.8253 6.72767 26.8333 10.2686 26.8333 13.9999C26.8333 17.7337 25.8253 21.2733 23.9951 23.9675C23.7957 24.2619 23.4666 24.4385 23.1155 24.4385C22.8978 24.4385 22.6873 24.3709 22.5063 24.2431C22.0218 23.8961 21.9019 23.2135 22.2371 22.7175C23.8202 20.3853 24.6924 17.289 24.6924 13.9999C24.6924 10.712 23.8202 7.61571 22.2371 5.2835C21.9019 4.78874 22.0218 4.10486 22.5051 3.75791Z" fill="#585858"/>
</svg>
